<?xml version="1.0" encoding="UTF-8" standalone="no"?>
<!-- Created with Inkscape (http://www.inkscape.org/) -->

<svg
   xmlns:dc="http://purl.org/dc/elements/1.1/"
   xmlns:cc="http://creativecommons.org/ns#"
   xmlns:rdf="http://www.w3.org/1999/02/22-rdf-syntax-ns#"
   xmlns:svg="http://www.w3.org/2000/svg"
   xmlns="http://www.w3.org/2000/svg"
   xmlns:sodipodi="http://sodipodi.sourceforge.net/DTD/sodipodi-0.dtd"
   xmlns:inkscape="http://www.inkscape.org/namespaces/inkscape"
   width="744.09448819"
   height="1052.3622047"
   id="svg2"
   version="1.1"
   inkscape:version="0.47 r22583"
   sodipodi:docname="New document 1">
  <defs
     id="defs4">
    <inkscape:perspective
       sodipodi:type="inkscape:persp3d"
       inkscape:vp_x="0 : 526.18109 : 1"
       inkscape:vp_y="0 : 1000 : 0"
       inkscape:vp_z="744.09448 : 526.18109 : 1"
       inkscape:persp3d-origin="372.04724 : 350.78739 : 1"
       id="perspective10" />
  </defs>
  <sodipodi:namedview
     id="base"
     pagecolor="#ffffff"
     bordercolor="#666666"
     borderopacity="1.0"
     inkscape:pageopacity="0.0"
     inkscape:pageshadow="2"
     inkscape:zoom="1.4"
     inkscape:cx="32.120407"
     inkscape:cy="372.08003"
     inkscape:document-units="px"
     inkscape:current-layer="layer1"
     showgrid="false"
     inkscape:window-width="1305"
     inkscape:window-height="718"
     inkscape:window-x="0"
     inkscape:window-y="25"
     inkscape:window-maximized="1" />
  <metadata
     id="metadata7">
    <rdf:RDF>
      <cc:Work
         rdf:about="">
        <dc:format>image/svg+xml</dc:format>
        <dc:type
           rdf:resource="http://purl.org/dc/dcmitype/StillImage" />
        <dc:title></dc:title>
      </cc:Work>
    </rdf:RDF>
  </metadata>
  <g
     inkscape:label="Layer 1"
     inkscape:groupmode="layer"
     id="layer1">
    <path
       sodipodi:type="star"
       style="fill:#f6ad36;fill-opacity:1;stroke:#000082;stroke-width:11.19999981;stroke-miterlimit:4;stroke-opacity:1;stroke-dasharray:none"
       id="path2905"
       sodipodi:sides="37"
       sodipodi:cx="102.85714"
       sodipodi:cy="220.93361"
       sodipodi:r1="452.05978"
       sodipodi:r2="502.28864"
       sodipodi:arg1="0.64008815"
       sodipodi:arg2="0.72499606"
       inkscape:flatsided="false"
       inkscape:rounded="0"
       inkscape:randomized="0"
       d="m 465.42858,490.93361 13.39263,63.08391 -64.23812,-5.69274 2.53876,64.43987 -62.35203,-16.46715 -8.38815,63.94201 -58.67219,-26.76783 -19.07375,61.60466 -53.30445,-36.29845 -29.21063,57.49506 -46.40325,-44.78483 -38.50718,51.73142 -38.167106,-51.98282 -46.695936,44.47957 -28.832971,-57.68537 -53.54134,35.94812 -18.66936,-61.72842 -58.846457,26.38251 -7.96867,-63.99565 -62.45867,16.05792 2.96127,-64.42184 -64.27406,5.27138 13.80602,-62.99473 -64.2404,-5.66682 24.2536,-59.75538 -62.35867,-16.44199 34.00344,-54.79698 -58.68299,-26.74415 42.77506,-48.26216 -53.3191,-36.27693 50.31613,-40.33894 -46.42132,-44.76609 56.40969,-31.25523 -38.18809,-51.967416 60.88045,-21.272367 -28.85625,-57.6737304 63.59978,-10.6775376 L -300,-79.066387 l 64.48947,0.224464 -7.99449,-63.992427 63.52391,11.12001 2.93528,-64.42303 60.73089,21.69566 13.78059,-63.0003 56.190751,31.64715 24.229477,-59.76517 50.034101,40.68822 33.98132,-54.81069 42.438061,48.55876 42.75559,-48.27943 33.62116,55.03236 50.29984,-40.35924 23.83704,59.92276 56.39707,-31.27799 13.36717,63.08931 60.87185,-21.29693 2.51275,64.44089 63.59547,-10.70321 -8.41396,63.938626 64.48956,0.198437 -19.09861,61.596959 63.5284,11.0943714 -29.23384,57.4832616 60.73965,21.67114 -38.52805,51.715875 56.20352,31.62447 -46.71389,44.46072 50.05052,40.66802 -53.55584,35.92651 42.45766,48.54162 -58.85711,26.35876 33.64337,55.01878 -62.46514,16.03271 23.86122,59.91314 -64.27618,5.24543 z"
       transform="matrix(0.25956648,0,0,0.26185081,54.678548,612.26968)"
       inkscape:export-filename="/home/michael/Desktop/alpha.png"
       inkscape:export-xdpi="27.115519"
       inkscape:export-ydpi="27.115519" />
    <text
       xml:space="preserve"
       style="font-size:40px;font-style:normal;font-weight:normal;fill:#000082;fill-opacity:1;stroke:none;font-family:Bitstream Vera Sans"
       x="-177.40755"
       y="683.55316"
       id="text3679"
       transform="matrix(0.96592583,-0.25881905,0.25881905,0.96592583,0,0)"><tspan
         sodipodi:role="line"
         id="tspan3681"
         x="-177.40755"
         y="683.55316"
         style="font-size:56px">Alpha</tspan></text>
  </g>
</svg>
